<?xml version="1.0" standalone="no"?>
<!DOCTYPE svg PUBLIC "-//W3C//DTD SVG 20010904//EN"
 "http://www.w3.org/TR/2001/REC-SVG-20010904/DTD/svg10.dtd">
<svg version="1.0" xmlns="http://www.w3.org/2000/svg"
 width="1536.000000pt" height="1024.000000pt" viewBox="0 0 1536.000000 1024.000000"
 preserveAspectRatio="xMidYMid meet">

<g transform="translate(0.000000,1024.000000) scale(0.100000,-0.100000)"
fill="#000000" stroke="none">
<path d="M5098 7614 c-5 -4 -8 -61 -8 -126 l0 -118 628 0 c790 -1 865 -7 1027
-85 201 -98 348 -277 406 -495 32 -118 32 -283 0 -395 -92 -331 -355 -550
-739 -616 -102 -17 -164 -19 -578 -19 l-465 0 3 -117 3 -116 395 -234 c691
-409 901 -533 1075 -639 l170 -104 209 0 209 0 -194 114 c-107 62 -297 175
-424 251 -126 76 -250 149 -275 163 -24 14 -85 50 -135 80 -119 72 -535 310
-607 347 -32 17 -58 32 -58 35 0 3 147 4 327 2 342 -3 458 4 593 39 202 51
385 154 530 298 86 85 183 218 175 239 -2 7 0 10 5 7 6 -4 23 21 39 57 33 74
50 132 21 73 -15 -32 -20 -35 -20 -17 0 12 7 39 15 59 32 77 12 63 -30 -21
-55 -108 -107 -180 -194 -266 -55 -54 -198 -160 -261 -195 -29 -15 4 11 75 60
105 73 174 135 168 151 -3 8 -1 14 5 14 13 0 53 98 42 105 -5 3 -7 12 -3 20 3
9 0 22 -7 30 -7 8 -9 15 -5 15 4 0 2 6 -4 14 -8 10 -9 16 -1 21 5 3 10 11 10
17 0 5 -8 1 -17 -10 -18 -20 -18 -20 -37 -1 -15 14 -16 19 -5 19 12 0 12 2 0
9 -10 7 -11 13 -2 30 7 11 9 21 7 21 -3 0 -15 -18 -26 -40 -29 -56 -31 -50 -6
14 11 30 25 51 30 48 5 -3 6 0 3 5 -4 6 0 48 8 94 8 46 16 120 16 164 2 66 3
73 9 40 7 -36 13 -27 13 18 0 13 4 16 16 12 13 -5 14 -4 4 6 -17 17 -16 29 2
29 8 0 15 6 15 13 0 6 12 23 27 37 15 14 23 19 18 11 -5 -10 -4 -12 3 -7 7 4
12 14 12 22 0 8 5 14 11 14 5 0 7 -6 4 -12 -4 -7 1 -4 10 7 10 12 14 30 10 45
-5 23 -4 24 7 5 7 -11 23 -47 35 -80 13 -33 21 -47 18 -32 -39 194 -225 403
-465 524 -73 37 -74 42 -3 15 65 -25 151 -22 191 7 17 11 36 21 44 21 7 0 -2
14 -19 30 -18 16 -33 32 -33 36 0 10 83 -59 139 -116 52 -52 53 -53 18 -9
-103 129 -314 255 -526 313 -160 44 -216 47 -946 53 -385 3 -703 2 -707 -3z
m2085 -862 c8 -23 11 -44 7 -47 -4 -3 -11 11 -14 31 -4 19 -10 43 -13 52 -3 9
-4 15 0 12 3 -3 12 -24 20 -48z m-111 -2001 c220 -128 323 -193 293 -186 -16
4 -33 11 -36 16 -3 6 -10 9 -15 8 -19 -3 -35 1 -30 10 3 4 -6 13 -20 20 -31
14 -34 14 -34 0 0 -5 6 -7 13 -3 9 6 9 5 0 -8 -7 -8 -10 -18 -6 -21 11 -12 21
-8 26 11 3 12 5 11 6 -6 0 -13 5 -21 10 -17 5 3 12 1 15 -3 3 -5 -31 -10 -77
-11 -45 -1 -79 1 -76 4 4 3 27 6 52 7 32 0 44 4 39 12 -3 6 -7 16 -7 21 -1 6
-7 9 -15 7 -11 -3 -12 -1 -3 8 19 20 -12 45 -164 137 -79 47 -143 87 -143 90
0 2 15 -4 33 -15 17 -11 80 -47 139 -81z"/>
<path d="M7670 7471 l0 -121 623 0 c370 0 648 -4 687 -10 88 -14 211 -55 292
-97 87 -45 207 -148 265 -226 25 -34 50 -61 55 -59 5 1 7 -2 4 -7 -3 -5 8 -38
24 -74 56 -124 74 -209 73 -347 0 -107 -4 -137 -28 -210 -15 -47 -28 -95 -28
-107 -1 -11 -5 -19 -9 -17 -5 3 -58 -80 -58 -93 0 -2 6 -1 13 3 7 4 9 3 4 -2
-5 -5 -12 -9 -15 -9 -4 0 -36 -31 -72 -69 -112 -117 -220 -184 -377 -233 l-88
-27 -682 -4 -683 -3 0 -605 0 -604 125 0 125 0 0 495 0 494 541 1 c609 0 690
6 869 66 109 36 238 100 287 141 15 13 1 7 -31 -13 -62 -39 -164 -87 -206 -98
-14 -4 8 10 49 29 l74 36 -39 35 -39 35 30 -5 29 -5 -29 25 c-36 31 -63 38
-99 25 -64 -25 -45 -8 33 29 46 22 111 60 145 84 78 56 196 180 236 248 33 57
71 167 69 202 0 11 -7 -5 -15 -37 -18 -76 -67 -173 -111 -223 -20 -21 -30 -31
-23 -21 13 18 23 90 12 83 -9 -5 -9 90 -1 98 3 4 3 26 -2 49 -4 23 -2 81 4
130 8 65 7 111 -1 175 -14 104 -9 120 8 23 11 -69 24 -99 19 -43 -2 15 1 33 5
41 6 10 5 12 -2 7 -7 -4 -12 -3 -12 3 0 5 4 12 9 15 5 3 7 15 4 26 -3 11 -1
20 4 20 11 0 11 30 -1 48 -4 7 -2 19 5 28 9 11 9 20 0 42 -7 15 -8 23 -2 17
16 -17 71 -160 85 -227 8 -35 14 -52 15 -39 2 41 -30 152 -64 227 -93 204
-242 346 -487 465 -46 22 -75 38 -65 35 54 -17 68 -18 65 -5 -2 8 5 14 16 14
11 0 21 6 24 13 2 6 7 10 11 7 5 -2 6 7 3 20 -3 17 1 27 12 31 17 7 23 44 6
44 -5 0 -7 7 -4 15 4 11 -7 21 -37 35 -24 11 -38 20 -31 20 18 0 166 -62 227
-96 28 -15 46 -22 40 -16 -16 18 -185 98 -256 121 -36 12 -110 31 -165 43 -94
20 -131 21 -781 25 l-683 4 0 -120z m1477 73 c-3 -3 -12 -4 -19 -1 -8 3 -5 6
6 6 11 1 17 -2 13 -5z m73 -14 c20 -6 21 -8 5 -8 -11 0 -31 4 -45 8 -20 6 -21
8 -5 8 11 0 31 -4 45 -8z m460 -755 c-1 -11 -9 3 -19 30 -31 87 -32 91 -6 40
13 -27 25 -59 25 -70z m7 -447 c-3 -8 -6 -5 -6 6 -1 11 2 17 5 13 3 -3 4 -12
1 -19z m-7 -41 c0 -7 -7 -22 -15 -33 -13 -17 -13 -16 -3 14 13 34 18 40 18 19z
m-220 -331 c0 -2 -8 -10 -17 -17 -16 -13 -17 -12 -4 4 13 16 21 21 21 13z"/>
<path d="M9730 7255 c13 -14 26 -25 28 -25 3 0 -5 11 -18 25 -13 14 -26 25
-28 25 -3 0 5 -11 18 -25z"/>
<path d="M9761 6753 c-1 -23 4 -33 14 -33 12 0 13 5 7 18 -5 9 -12 24 -15 32
-3 8 -6 0 -6 -17z"/>
<path d="M9843 6480 c0 -47 2 -66 4 -42 2 23 2 61 0 85 -2 23 -4 4 -4 -43z"/>
<path d="M9745 5858 l-40 -43 43 40 c39 36 47 45 39 45 -2 0 -21 -19 -42 -42z"/>
<path d="M9659 5783 c-13 -16 -12 -17 4 -4 16 13 21 21 13 21 -2 0 -10 -8 -17
-17z"/>
<path d="M6025 4265 c-27 -8 -53 -14 -56 -15 -3 0 -27 -18 -52 -40 -78 -69
-82 -91 -82 -465 0 -374 4 -396 82 -465 60 -52 121 -70 242 -70 164 0 250 40
298 139 l28 56 3 319 c3 378 -1 403 -76 476 -26 25 -65 51 -87 58 -61 21 -240
25 -300 7z m207 -167 c40 -20 43 -44 46 -333 4 -321 -1 -348 -58 -378 -47 -24
-105 -17 -139 17 l-26 26 -3 308 c-3 300 -2 309 18 335 33 42 107 54 162 25z"/>
<path d="M9443 4270 c-89 -18 -147 -62 -182 -140 -19 -42 -21 -64 -21 -380 0
-208 4 -350 11 -374 14 -52 80 -121 137 -143 36 -14 76 -18 172 -18 109 0 131
3 175 23 61 28 90 55 118 107 20 37 22 58 25 245 l3 205 -158 0 -158 0 2 -80
2 -80 50 -3 51 -3 0 -86 c0 -100 -17 -145 -61 -163 -43 -18 -106 -2 -133 33
-20 27 -21 41 -24 325 -2 330 -2 335 61 365 33 17 42 17 80 5 54 -17 77 -59
77 -140 l0 -58 106 0 106 0 -4 98 c-6 131 -38 192 -123 235 -69 34 -212 46
-312 27z"/>
<path d="M5030 3740 l0 -520 110 0 110 0 0 220 0 220 110 0 110 0 0 -220 0
-220 110 0 110 0 0 520 0 520 -110 0 -110 0 0 -215 0 -215 -110 0 -110 0 0
215 0 215 -110 0 -110 0 0 -520z"/>
<path d="M6639 4256 c-2 -2 -3 -236 -1 -520 l2 -516 271 0 c243 0 271 2 265
16 -3 9 -6 45 -6 80 l0 64 -160 0 -160 0 0 440 0 440 -103 0 c-57 0 -106 -2
-108 -4z"/>
<path d="M7270 3740 l0 -520 198 0 c291 0 363 24 419 139 l28 56 0 325 c0 323
0 325 -24 379 -16 35 -38 63 -64 82 -70 51 -119 59 -349 59 l-208 0 0 -520z
m396 326 l35 -35 -3 -295 -3 -296 -28 -27 c-24 -25 -36 -28 -107 -31 l-80 -4
0 361 0 361 76 0 c73 0 77 -1 110 -34z"/>
<path d="M8040 3740 l0 -520 110 0 110 0 0 520 0 520 -110 0 -110 0 0 -520z"/>
<path d="M8405 3740 l0 -520 98 0 97 0 0 358 0 357 109 -280 c60 -154 122
-314 139 -355 l30 -75 111 -3 111 -3 0 521 0 520 -100 0 -100 0 0 -302 -1
-303 -38 100 c-21 55 -75 190 -119 300 l-80 200 -128 3 -129 3 0 -521z"/>
</g>
</svg>
